<?xml version="1.0" encoding="UTF-8" standalone="no"?>
<!-- Created with Inkscape (http://www.inkscape.org/) -->

<svg
   xmlns:dc="http://purl.org/dc/elements/1.1/"
   xmlns:cc="http://creativecommons.org/ns#"
   xmlns:rdf="http://www.w3.org/1999/02/22-rdf-syntax-ns#"
   xmlns:svg="http://www.w3.org/2000/svg"
   xmlns="http://www.w3.org/2000/svg"
   xmlns:sodipodi="http://sodipodi.sourceforge.net/DTD/sodipodi-0.dtd"
   xmlns:inkscape="http://www.inkscape.org/namespaces/inkscape"
   width="1024"
   height="1024"
   viewBox="0 0 270.93333 270.93334"
   version="1.1"
   id="svg40"
   inkscape:version="0.92.4 (5da689c313, 2019-01-14)"
   sodipodi:docname="Assets.svg">
  <defs
     id="defs34" />
  <sodipodi:namedview
     id="base"
     pagecolor="#ffffff"
     bordercolor="#666666"
     borderopacity="1.0"
     inkscape:pageopacity="0.0"
     inkscape:pageshadow="2"
     inkscape:zoom="0.53751164"
     inkscape:cx="-619.77322"
     inkscape:cy="581.92014"
     inkscape:document-units="mm"
     inkscape:current-layer="layer1"
     showgrid="false"
     units="px"
     showguides="false"
     inkscape:window-width="1366"
     inkscape:window-height="705"
     inkscape:window-x="-8"
     inkscape:window-y="-8"
     inkscape:window-maximized="1" />
  <metadata
     id="metadata37">
    <rdf:RDF>
      <cc:Work
         rdf:about="">
        <dc:format>image/svg+xml</dc:format>
        <dc:type
           rdf:resource="http://purl.org/dc/dcmitype/StillImage" />
        <dc:title />
      </cc:Work>
    </rdf:RDF>
  </metadata>
  <g
     inkscape:label="Camada 1"
     inkscape:groupmode="layer"
     id="layer1"
     transform="translate(0,-26.06665)">
    <path
       style="fill:#333333;stroke:#000000;stroke-width:1;stroke-linecap:butt;stroke-linejoin:miter;stroke-opacity:1;stroke-miterlimit:4;stroke-dasharray:none"
       d="m -160.80575,57.879737 c 11.48612,14.618705 -4.00274,24.364508 -4.00274,24.364508 l 20.36176,-0.435081 c 0,0 -15.74991,-12.443302 -9.13669,-23.755395 z"
       id="path82"
       inkscape:connector-curvature="0" />
    <rect
       style="opacity:0.2;fill:#009d7e;fill-opacity:1;stroke:none;stroke-width:0.71613848;stroke-miterlimit:4;stroke-dasharray:none;stroke-opacity:1"
       id="rect42"
       width="67.73333"
       height="67.73333"
       x="0.33057335"
       y="26.291382" />
    <rect
       y="26.291382"
       x="68.063904"
       height="67.73333"
       width="67.73333"
       id="rect44"
       style="opacity:0.2;fill:#999999;fill-opacity:1;stroke:none;stroke-width:0.71613848;stroke-miterlimit:4;stroke-dasharray:none;stroke-opacity:1"
       inkscape:transform-center-x="-0.49223736"
       inkscape:transform-center-y="0.49223737" />
    <rect
       y="26.291382"
       x="135.79724"
       height="67.73333"
       width="67.73333"
       id="rect46"
       style="opacity:0.2;fill:#009d7e;fill-opacity:1;stroke:none;stroke-width:0.71613848;stroke-miterlimit:4;stroke-dasharray:none;stroke-opacity:1" />
    <rect
       inkscape:transform-center-y="0.49223737"
       inkscape:transform-center-x="-0.49223736"
       style="opacity:0.2;fill:#999999;fill-opacity:1;stroke:none;stroke-width:0.71613848;stroke-miterlimit:4;stroke-dasharray:none;stroke-opacity:1"
       id="rect48"
       width="67.73333"
       height="67.73333"
       x="203.53058"
       y="26.291382" />
    <rect
       y="94.024712"
       x="-271.26392"
       height="67.73333"
       width="67.73333"
       id="rect50"
       style="opacity:0.2;fill:#009d7e;fill-opacity:1;stroke:none;stroke-width:0.71613848;stroke-miterlimit:4;stroke-dasharray:none;stroke-opacity:1"
       transform="scale(-1,1)" />
    <rect
       inkscape:transform-center-y="0.49223737"
       inkscape:transform-center-x="0.49223667"
       style="opacity:0.2;fill:#999999;fill-opacity:1;stroke:none;stroke-width:0.71613848;stroke-miterlimit:4;stroke-dasharray:none;stroke-opacity:1"
       id="rect52"
       width="67.73333"
       height="67.73333"
       x="-203.53058"
       y="94.024712"
       transform="scale(-1,1)" />
    <rect
       style="opacity:0.2;fill:#009d7e;fill-opacity:1;stroke:none;stroke-width:0.71613848;stroke-miterlimit:4;stroke-dasharray:none;stroke-opacity:1"
       id="rect54"
       width="67.73333"
       height="67.73333"
       x="-135.79724"
       y="94.024712"
       transform="scale(-1,1)" />
    <rect
       y="94.024712"
       x="-68.063904"
       height="67.73333"
       width="67.73333"
       id="rect56"
       style="opacity:0.2;fill:#999999;fill-opacity:1;stroke:none;stroke-width:0.71613848;stroke-miterlimit:4;stroke-dasharray:none;stroke-opacity:1"
       inkscape:transform-center-x="0.49223667"
       inkscape:transform-center-y="0.49223737"
       transform="scale(-1,1)" />
    <rect
       y="161.75804"
       x="0.33058098"
       height="67.73333"
       width="67.73333"
       id="rect58"
       style="opacity:0.2;fill:#009d7e;fill-opacity:1;stroke:none;stroke-width:0.71613848;stroke-miterlimit:4;stroke-dasharray:none;stroke-opacity:1" />
    <rect
       inkscape:transform-center-y="0.49223737"
       inkscape:transform-center-x="-0.49223736"
       style="opacity:0.2;fill:#999999;fill-opacity:1;stroke:none;stroke-width:0.71613848;stroke-miterlimit:4;stroke-dasharray:none;stroke-opacity:1"
       id="rect60"
       width="67.73333"
       height="67.73333"
       x="68.063911"
       y="161.75804" />
    <rect
       style="opacity:0.2;fill:#009d7e;fill-opacity:1;stroke:none;stroke-width:0.71613848;stroke-miterlimit:4;stroke-dasharray:none;stroke-opacity:1"
       id="rect62"
       width="67.73333"
       height="67.73333"
       x="135.79724"
       y="161.75804" />
    <rect
       y="161.75804"
       x="203.53058"
       height="67.73333"
       width="67.73333"
       id="rect64"
       style="opacity:0.2;fill:#999999;fill-opacity:1;stroke:none;stroke-width:0.71613848;stroke-miterlimit:4;stroke-dasharray:none;stroke-opacity:1"
       inkscape:transform-center-x="-0.49223736"
       inkscape:transform-center-y="0.49223737" />
    <rect
       transform="scale(-1,1)"
       style="opacity:0.2;fill:#009d7e;fill-opacity:1;stroke:none;stroke-width:0.71613848;stroke-miterlimit:4;stroke-dasharray:none;stroke-opacity:1"
       id="rect66"
       width="67.73333"
       height="67.73333"
       x="-271.26392"
       y="229.49138" />
    <rect
       transform="scale(-1,1)"
       y="229.49138"
       x="-203.53058"
       height="67.73333"
       width="67.73333"
       id="rect68"
       style="opacity:0.2;fill:#999999;fill-opacity:1;stroke:none;stroke-width:0.71613848;stroke-miterlimit:4;stroke-dasharray:none;stroke-opacity:1"
       inkscape:transform-center-x="0.49223667"
       inkscape:transform-center-y="0.49223737" />
    <rect
       transform="scale(-1,1)"
       y="229.49138"
       x="-135.79724"
       height="67.73333"
       width="67.73333"
       id="rect70"
       style="opacity:0.2;fill:#009d7e;fill-opacity:1;stroke:none;stroke-width:0.71613848;stroke-miterlimit:4;stroke-dasharray:none;stroke-opacity:1" />
    <rect
       transform="scale(-1,1)"
       inkscape:transform-center-y="0.49223737"
       inkscape:transform-center-x="0.49223667"
       style="opacity:0.2;fill:#999999;fill-opacity:1;stroke:none;stroke-width:0.71613848;stroke-miterlimit:4;stroke-dasharray:none;stroke-opacity:1"
       id="rect72"
       width="67.73333"
       height="67.73333"
       x="-68.063911"
       y="229.49138" />
    <path
       style="fill:#333333;stroke:#000000;stroke-width:1;stroke-linecap:butt;stroke-linejoin:miter;stroke-opacity:1;stroke-miterlimit:4;stroke-dasharray:none"
       d="m -127.48949,83.615069 c 23.38128,19.935611 25.10411,45.285841 24.36576,50.946571 -0.73836,5.66073 2.46118,13.78265 6.152963,24.11963 3.691779,10.33699 -9.352513,12.79817 -10.336983,13.29041 -0.98448,0.49224 -83.68036,0.98448 -83.68036,0.98448 0,0 -12.79817,-6.39909 -0.73836,-17.96667 0,0 4.43014,-4.92237 -2.21507,-17.72054 -6.6452,-12.79818 6.15297,-48.731507 22.15069,-54.884474 15.99771,-6.152968 35.19497,-3.691781 44.30136,1.230593 z"
       id="path76"
       inkscape:connector-curvature="0" />
    <ellipse
       style="opacity:1;fill:#000000;fill-opacity:1;stroke:none;stroke-width:0.84515423;stroke-miterlimit:4;stroke-dasharray:none;stroke-opacity:1"
       id="path78"
       cx="-145.21002"
       cy="112.04178"
       rx="3.6917801"
       ry="9.9678078" />
    <ellipse
       ry="9.9678078"
       rx="3.6917801"
       cy="111.54954"
       cx="-123.05935"
       id="ellipse80"
       style="opacity:1;fill:#000000;fill-opacity:1;stroke:none;stroke-width:0.84515423;stroke-miterlimit:4;stroke-dasharray:none;stroke-opacity:1" />
    <path
       style="fill:#333333;fill-opacity:1;stroke:none;stroke-width:0.26458332px;stroke-linecap:butt;stroke-linejoin:miter;stroke-opacity:1"
       d="m -163.25495,80.455134 c 0,0 2.19459,-0.334623 3.55974,-2.300646 l 9.9405,-0.913669 c 0,0 1.15934,1.666276 2.63861,2.101356 l -0.0281,0.596143 z"
       id="path891"
       inkscape:connector-curvature="0"
       sodipodi:nodetypes="cccccc" />
    <path
       style="fill:none;stroke:#000000;stroke-width:1;stroke-linecap:butt;stroke-linejoin:miter;stroke-opacity:1;stroke-miterlimit:4;stroke-dasharray:none"
       d="m -111.49177,140.71461 c -0.98447,0 -43.07077,-2.95343 -50.70045,0.49223"
       id="path893"
       inkscape:connector-curvature="0" />
    <path
       style="fill:#ffe680;stroke:#000000;stroke-width:1;stroke-linecap:butt;stroke-linejoin:miter;stroke-opacity:1;stroke-miterlimit:4;stroke-dasharray:none"
       d="m -157.15108,140.19697 c 0,0 -0.95717,7.22233 0,7.48338 0.95718,0.26105 7.5704,-0.087 7.5704,-0.087 0,0 1.65331,0.43509 -0.60911,-7.65741 z"
       id="path897"
       inkscape:connector-curvature="0" />
    <path
       style="fill:#1a1a1a;stroke:#000000;stroke-width:1;stroke-linecap:butt;stroke-linejoin:miter;stroke-opacity:1;stroke-miterlimit:4;stroke-dasharray:none"
       d="m -172.63994,33.428212 7.0483,-3.13258 c 0,0 5.13395,22.798218 4.95992,21.057896 l -1.30524,-21.144912 6.26515,-0.261048 -1.91435,21.492977 3.91572,-21.405961 8.00549,3.393628 -10.70298,22.10209 -4.87291,0.08702 z"
       id="path921"
       inkscape:connector-curvature="0" />
    <path
       style="fill:#333333;stroke:#000000;stroke-width:1;stroke-linecap:butt;stroke-linejoin:miter;stroke-opacity:1;stroke-miterlimit:4;stroke-dasharray:none;fill-opacity:1"
       d="m -160.80575,57.879737 c -1.82734,-1.044194 -15.22782,-8.962659 -19.40459,-20.796849 l 8.09249,-5.656046 10.87701,24.190476 -6.78725,-27.062008 6.96129,-1.740322 2.26241,28.715314 1.21823,-29.063378 5.65605,0.870161 -4.43782,28.193217 9.57177,-26.539911 7.0483,4.611853 c 0,0 -7.39637,20.622817 -13.83556,24.451525 z"
       id="path919"
       inkscape:connector-curvature="0" />
    <path
       style="fill:#333333;stroke:none;stroke-width:0.26458332px;stroke-linecap:butt;stroke-linejoin:miter;stroke-opacity:1"
       d="m -159.30763,59.075606 c -0.21909,-0.215355 -1.02238,-1.735574 -2.09915,-2.135518 l 8.35171,0.0634 c 0,0 -1.47671,1.292123 -1.78436,2.338128 -0.15382,-0.03077 -4.4682,-0.266011 -4.4682,-0.266011 z"
       id="path923"
       inkscape:connector-curvature="0"
       sodipodi:nodetypes="ccccc" />
    <path
       style="fill:#1a1a1a;stroke:none;stroke-width:0.26458332px;stroke-linecap:butt;stroke-linejoin:miter;stroke-opacity:1"
       d="m -99.801131,158.92739 c 0,0 0,10.70616 -15.382419,8.98333 -15.38242,-1.72283 -71.86666,-0.73835 -72.3589,-0.61529 -0.49224,0.12305 -6.52214,-3.32261 -1.47671,-7.75274 5.04543,-4.43014 5.29155,-12.18288 2.33813,-19.56644 -2.95268,-7.38333 -5.78617,-15.29532 -4.16483,-21.42726 0,0 7.79257,-28.815296 26.03737,-36.304745 0,0 5.61253,-0.696129 6.96128,-5.090442 0,0 2.30593,-4.69887 2.1319,-7.483385 -0.17404,-2.784515 0.0435,-6.439191 -3.65468,-11.964714 0,0 -12.70435,-8.179513 -13.35697,-12.791367 0,0 -3.82871,-8.223021 -3.08907,-9.441247 l -0.17404,-0.739637 -3.64379,2.545221 c 0,0 2.42839,5.41916 3.7359,6.726666 1.30751,1.307506 2.56189,4.019823 8.21793,8.457644 5.65605,4.437821 6.87427,4.807639 6.87427,4.807639 0,0 0.8049,0.500343 1.74033,2.197157 0.93542,1.696814 1.63155,2.632237 2.1754,4.350805 0.54385,1.718568 1.23998,4.69887 0.58736,7.048304 -0.65262,2.349435 -0.78315,3.937479 -2.78452,6.526208 -2.00137,2.588729 -3.19784,2.828023 -3.28486,2.806269 -0.087,-0.02175 -6.98304,1.609798 -8.07074,2.218911 0,0 -4.13326,1.326995 -6.37393,3.589414 0,0 -5.76482,4.698869 -7.72268,8.91915 0,0 -4.02449,6.569719 -4.80764,8.832139 0,0 -3.73308,8.49815 -4.10226,11.51311 0,0 -1.87665,8.06038 -1.7536,11.50605 0.12306,3.44566 -0.30764,7.19897 2.06125,10.98304 2.36889,3.78408 3.63025,10.33699 3.3226,12.21364 -0.30765,1.87666 0.15383,3.90714 -2.49195,6.36833 -2.64578,2.46118 -4.09172,5.99914 -3.99943,7.04514 0.0923,1.04601 -0.95371,2.70731 2.36889,6.76827 0,0 2.15354,1.84589 2.83037,2.15354 l 83.55927,-0.70032 c 0,0 11.312092,-3.21959 10.702979,-9.04967 0.35423,-0.1703 -0.427528,-4.56257 -1.914354,-7.46163 -0.636222,1.23484 -1.200695,2.47992 -1.037856,3.82891 z"
       id="path41"
       inkscape:connector-curvature="0"
       sodipodi:nodetypes="csccccccccccccssccsssccccccccscccccccc" />
  </g>
</svg>
