<?xml version="1.0" encoding="UTF-8" standalone="no"?>
<!-- Created with Inkscape (http://www.inkscape.org/) -->

<svg
   xmlns:dc="http://purl.org/dc/elements/1.1/"
   xmlns:cc="http://creativecommons.org/ns#"
   xmlns:rdf="http://www.w3.org/1999/02/22-rdf-syntax-ns#"
   xmlns:svg="http://www.w3.org/2000/svg"
   xmlns="http://www.w3.org/2000/svg"
   xmlns:sodipodi="http://sodipodi.sourceforge.net/DTD/sodipodi-0.dtd"
   xmlns:inkscape="http://www.inkscape.org/namespaces/inkscape"
   width="210mm"
   height="297mm"
   viewBox="0 0 210 297"
   version="1.1"
   id="svg8"
   inkscape:version="0.92.4 (5da689c313, 2019-01-14)"
   sodipodi:docname="Player.svg">
  <defs
     id="defs2" />
  <sodipodi:namedview
     id="base"
     pagecolor="#ffffff"
     bordercolor="#666666"
     borderopacity="1.0"
     inkscape:pageopacity="0.0"
     inkscape:pageshadow="2"
     inkscape:zoom="0.38007813"
     inkscape:cx="-222.19245"
     inkscape:cy="713.96648"
     inkscape:document-units="mm"
     inkscape:current-layer="layer1"
     showgrid="false"
     inkscape:window-width="1366"
     inkscape:window-height="705"
     inkscape:window-x="-8"
     inkscape:window-y="-8"
     inkscape:window-maximized="1" />
  <metadata
     id="metadata5">
    <rdf:RDF>
      <cc:Work
         rdf:about="">
        <dc:format>image/svg+xml</dc:format>
        <dc:type
           rdf:resource="http://purl.org/dc/dcmitype/StillImage" />
        <dc:title></dc:title>
      </cc:Work>
    </rdf:RDF>
  </metadata>
  <g
     inkscape:label="Camada 1"
     inkscape:groupmode="layer"
     id="layer1">
    <g
       id="g909"
       transform="translate(14.618705)">
      <path
         sodipodi:nodetypes="ccccc"
         inkscape:connector-curvature="0"
         id="path835-9"
         d="m 53.669482,44.048595 c 0,0 -14.342357,-9.97774 -37.803691,-4.13583 0,0 1.595427,-0.71449 1.067351,6.97169 4.736988,-0.24562 22.213399,-1.75233 36.73634,-2.83586 z"
         style="fill:#4d4d4d;stroke:#000000;stroke-width:0.26458332px;stroke-linecap:butt;stroke-linejoin:miter;stroke-opacity:1" />
      <path
         sodipodi:nodetypes="cccccc"
         inkscape:connector-curvature="0"
         id="path856"
         d="m 51.65054,41.357605 -14.494666,0.68522 -23.146282,5.56903 c 0,0 -0.674266,5.4609 0.348064,7.39636 2.035036,2.63304 24.326198,-1.06863 32.155156,-7.98988 z"
         style="fill:#808080;fill-opacity:1;stroke:#000000;stroke-width:0.26458332px;stroke-linecap:butt;stroke-linejoin:miter;stroke-opacity:1" />
      <path
         sodipodi:nodetypes="ccccc"
         inkscape:connector-curvature="0"
         id="path835"
         d="m 54.87072,40.577695 c 0,0 -10.328691,-14.09172 -34.416166,-16.17874 0,0 0.646502,4.03742 -0.337973,6.92931 0.307648,-0.0615 16.920661,-0.92294 32.918376,10.39852 z"
         style="fill:#4d4d4d;stroke:#000000;stroke-width:0.26458332px;stroke-linecap:butt;stroke-linejoin:miter;stroke-opacity:1" />
      <path
         sodipodi:nodetypes="ccccc"
         inkscape:connector-curvature="0"
         id="path837"
         d="m 54.87072,40.577695 c -6.093671,-4.95885 -21.398343,-11.82267 -40.492577,-11.99869 -0.985286,4.33153 -0.685902,8.37757 0.414594,12.24559 0,0 20.248514,1.16575 37.089973,2.17541 z"
         style="fill:#808080;fill-opacity:1;stroke:#000000;stroke-width:0.26458332px;stroke-linecap:butt;stroke-linejoin:miter;stroke-opacity:1" />
      <path
         sodipodi:nodetypes="ccccc"
         inkscape:connector-curvature="0"
         id="path833"
         d="m 58.486498,39.708645 c 0,0 -18.626055,-30.5437684 -42.294433,-22.19022 -1.896518,2.78801 -1.014196,4.68667 -0.284102,6.68474 0.05126,-0.009 21.994564,0.28079 35.974747,18.79684 z"
         style="fill:#808080;stroke:#000000;stroke-width:0.26458332px;stroke-linecap:butt;stroke-linejoin:miter;stroke-opacity:1" />
      <path
         inkscape:connector-curvature="0"
         id="path858"
         d="m 35.067489,42.782455 3.393628,-1.0877 -3.176088,0.13053 c 0,0 -0.08702,-1.13121 0.609111,-1.21823 0.696129,-0.087 14.618705,1.69681 14.618705,1.69681 0,0 0.04351,1.0442 -0.174032,1.08771 -0.217541,0.0435 -1.348748,0.52209 -1.348748,0.52209 z"
         style="fill:#808080;fill-opacity:1;stroke:none;stroke-width:0.26458332px;stroke-linecap:butt;stroke-linejoin:miter;stroke-opacity:1" />
      <path
         inkscape:connector-curvature="0"
         id="path16"
         d="m 53.253854,53.180885 c 0,0 -2.926204,0.48265 -2.187847,-2.34771 0,0 10e-7,-1.84589 -1.476712,-1.84589 -0.738356,-0.12306 -3.076483,1.23059 -3.076483,-1.96895 0,0 3.937899,-6.39908 11.444519,-8.36803 0,0 2.707306,0.73835 1.476712,2.33812 0,0 -0.615296,3.07649 1.230594,2.21507 1.84589,-0.86141 2.707306,1.35365 2.707306,1.35365 z"
         style="fill:#4d4d4d;stroke:#000000;stroke-width:0.26458332px;stroke-linecap:butt;stroke-linejoin:miter;stroke-opacity:1" />
      <path
         sodipodi:nodetypes="cscccccccc"
         inkscape:connector-curvature="0"
         id="path14"
         d="m 53.253854,53.180865 c -3.480644,4.69887 -8.347845,23.95285 -8.629524,29.35172 -0.261048,5.00343 4.365732,6.75995 4.365732,6.75995 29.97341,0.009 46.846708,0.54566 83.743718,0.0801 0,0 4.9257,-2.60354 6.14392,-6.43224 1.13121,-9.04968 -5.22097,-22.97227 -5.22097,-22.97227 0,0 -10.09386,-18.9695 -61.955464,-17.05514 0,0 -7.529438,0.16745 -10.605921,3.367 -6.460616,4.12249 -7.841491,6.9009 -7.841491,6.9009 z"
         style="fill:#808080;stroke:#000000;stroke-width:0.26458332px;stroke-linecap:butt;stroke-linejoin:miter;stroke-opacity:1" />
      <path
         inkscape:connector-curvature="0"
         id="path26"
         d="m 49.589293,48.987285 c 0,0 3.076483,-4.0302 9.844749,-7.99886 0,0 -0.399941,2.09201 0.492239,2.33813 0,0 -8.614156,8.36803 -8.860274,7.50662 0,0 -0.0923,-1.78436 -1.476714,-1.84589 z"
         style="fill:#1a1a1a;stroke:none;stroke-width:0.26458332px;stroke-linecap:butt;stroke-linejoin:miter;stroke-opacity:1" />
      <path
         inkscape:connector-curvature="0"
         id="path18"
         d="m 49.589293,48.987285 c 0,0 1.968953,-2.7073 5.906849,-5.35308"
         style="fill:none;stroke:#000000;stroke-width:0.26458332px;stroke-linecap:butt;stroke-linejoin:miter;stroke-opacity:1" />
      <path
         inkscape:connector-curvature="0"
         id="path20"
         d="m 59.926281,43.326555 c 0,0 -5.476142,5.47614 -6.952853,5.78379"
         style="fill:none;stroke:#000000;stroke-width:0.26458332px;stroke-linecap:butt;stroke-linejoin:miter;stroke-opacity:1" />
      <path
         inkscape:connector-curvature="0"
         id="path22"
         d="m 51.066007,50.833175 c 0,0 0.307647,0.6153 1.107535,-0.55377"
         style="fill:none;stroke:#000000;stroke-width:0.26458332px;stroke-linecap:butt;stroke-linejoin:miter;stroke-opacity:1" />
      <path
         inkscape:connector-curvature="0"
         id="path24"
         d="m 59.434042,40.988425 c 0,0 -0.369176,0.30765 -2.153539,1.47671"
         style="fill:none;stroke:#000000;stroke-width:0.26458332px;stroke-linecap:butt;stroke-linejoin:miter;stroke-opacity:1" />
      <path
         sodipodi:nodetypes="cccscsc"
         inkscape:connector-curvature="0"
         id="path854"
         d="m 42.416129,33.988335 1.210387,0.44377 -1.020839,-0.91953 c 0,0 3.045719,-0.0923 3.322603,0.21535 0.276884,0.30765 5.72226,7.62968 5.72226,7.62968 0,0 -0.338415,0.76912 -1.32289,0.86142 -0.984475,0.0923 -7.911521,-8.23069 -7.911521,-8.23069 z"
         style="fill:#808080;fill-opacity:1;stroke:none;stroke-width:0.26458332px;stroke-linecap:butt;stroke-linejoin:miter;stroke-opacity:1" />
      <ellipse
         ry="6.5913663"
         rx="1.5382417"
         cy="61.300922"
         cx="108.16555"
         id="path869"
         style="opacity:1;fill:#000000;fill-opacity:1;stroke:none;stroke-width:0.70951176;stroke-miterlimit:4;stroke-dasharray:none;stroke-opacity:1" />
      <ellipse
         ry="6.5913663"
         rx="1.5382417"
         cy="61.416264"
         cx="122.50195"
         id="path869-2"
         style="opacity:1;fill:#000000;fill-opacity:1;stroke:none;stroke-width:0.70951176;stroke-miterlimit:4;stroke-dasharray:none;stroke-opacity:1" />
      <path
         inkscape:connector-curvature="0"
         id="path886"
         d="m 133.74375,78.937645 c -0.5221,0 -45.857488,-0.60911 -45.857488,-0.60911"
         style="fill:none;stroke:#000000;stroke-width:1;stroke-linecap:butt;stroke-linejoin:miter;stroke-miterlimit:4;stroke-dasharray:none;stroke-opacity:1" />
      <path
         sodipodi:nodetypes="csscccc"
         inkscape:connector-curvature="0"
         id="path888"
         d="m 61.209186,46.441505 c 0,0 -16.628394,30.60329 -5.060816,35.52566 11.567578,4.92238 21.596915,7.26051 21.104678,7.26051 -0.492238,0 -28.262986,0.0649 -28.262986,0.0649 0,0 -5.697662,-2.28025 -3.844946,-9.96026 0.203109,-2.07594 4.184545,-17.58554 6.184825,-22.07036 0.307649,-0.33841 1.506946,-6.04787 9.879245,-10.82041 z"
         style="fill:#666666;stroke:none;stroke-width:0.26458332px;stroke-linecap:butt;stroke-linejoin:miter;stroke-opacity:1" />
    </g>
  </g>
</svg>
